<svg xmlns="http://www.w3.org/2000/svg" version="1.1" xmlns:xlink="http://www.w3.org/1999/xlink" width="512" height="512" x="0" y="0" viewBox="0 0 58 58" style="enable-background:new 0 0 512 512" xml:space="preserve" class=""><g><path d="M38.014 18.001 38.01 18h-.02l-.004.001C31.886 18.009 27 23.02 27 29s4.886 10.991 10.986 10.999l.004.001h.02l.004-.001C44.104 39.991 49 34.992 49 29c0-5.98-4.886-10.991-10.986-10.999zm7.733 15.557a12.701 12.701 0 0 0-2.153-1.289C43.861 31.203 44 30.108 44 29s-.139-2.203-.406-3.269a12.833 12.833 0 0 0 2.153-1.289C46.538 25.781 47 27.336 47 29s-.462 3.219-1.253 4.558zm-7.748 4.158a11.476 11.476 0 0 1-3.103-4.272 11.208 11.208 0 0 1 6.208 0 11.47 11.47 0 0 1-3.105 4.272zm.002-17.432a11.476 11.476 0 0 1 3.103 4.272 11.208 11.208 0 0 1-6.208 0 11.47 11.47 0 0 1 3.105-4.272zM34.287 31.54C34.099 30.71 34 29.86 34 29c0-.859.099-1.709.287-2.539 1.192.356 2.435.539 3.713.539s2.522-.184 3.713-.539c.188.83.287 1.68.287 2.539 0 .86-.099 1.71-.287 2.54a13.23 13.23 0 0 0-7.426 0zm10.259-8.697c-.497.371-1.026.696-1.581.976a13.47 13.47 0 0 0-1.958-3.292 9.009 9.009 0 0 1 3.539 2.316zm-9.553-2.316c-.803.996-1.464 2.1-1.958 3.292a10.828 10.828 0 0 1-1.581-.977 9.017 9.017 0 0 1 3.539-2.315zm-4.74 3.915c.672.502 1.394.928 2.153 1.289C32.139 26.797 32 27.892 32 29s.139 2.203.406 3.269c-.759.362-1.481.788-2.153 1.289C29.462 32.219 29 30.664 29 29s.462-3.219 1.253-4.558zm1.201 10.715a10.737 10.737 0 0 1 1.581-.976 13.47 13.47 0 0 0 1.958 3.292 9.009 9.009 0 0 1-3.539-2.316zm9.553 2.316c.803-.996 1.464-2.1 1.958-3.292.555.28 1.083.606 1.581.977a9.017 9.017 0 0 1-3.539 2.315zM20 51c0 1.654 1.346 3 3 3s3-1.346 3-3-1.346-3-3-3-3 1.346-3 3zm3-1a1.001 1.001 0 1 1-1 1c0-.552.449-1 1-1z" fill="#000a24" opacity="1" data-original="#000000"></path><path d="M54 10H38V5c0-2.757-2.243-5-5-5H13c-2.757 0-5 2.243-5 5v15.069c-3.94.495-7 3.859-7 7.931s3.06 7.436 7 7.931V53c0 2.757 2.243 5 5 5h20c2.757 0 5-2.243 5-5v-9h16c1.654 0 3-1.346 3-3V13c0-1.654-1.346-3-3-3zM28.382 2l-.724 1.447a.994.994 0 0 1-.894.553h-7.528a.994.994 0 0 1-.894-.553L17.618 2zM3 28c0-3.309 2.691-6 6-6s6 2.691 6 6-2.691 6-6 6-6-2.691-6-6zm33 25c0 1.654-1.346 3-3 3H13c-1.654 0-3-1.346-3-3V35.931c3.94-.495 7-3.859 7-7.931s-3.06-7.436-7-7.931V5c0-1.654 1.346-3 3-3h2.382l1.171 2.342A2.984 2.984 0 0 0 19.236 6h7.528a2.985 2.985 0 0 0 2.683-1.658L30.618 2H33c1.654 0 3 1.346 3 3v5H22c-1.654 0-3 1.346-3 3v28c0 1.654 1.346 3 3 3h14zm19-12c0 .552-.449 1-1 1H22c-.551 0-1-.448-1-1V13c0-.552.449-1 1-1h32c.551 0 1 .448 1 1z" fill="#000a24" opacity="1" data-original="#000000"></path><path d="M10.293 30.707a.997.997 0 0 0 1.414 0 .999.999 0 0 0 0-1.414L10.414 28l1.293-1.293a.999.999 0 1 0-1.414-1.414L9 26.586l-1.293-1.293a.999.999 0 1 0-1.414 1.414L7.586 28l-1.293 1.293a.999.999 0 1 0 1.414 1.414L9 29.414zM29 52h1a1 1 0 1 0 0-2h-1a1 1 0 1 0 0 2zM17 50h-1a1 1 0 1 0 0 2h1a1 1 0 1 0 0-2z" fill="#000a24" opacity="1" data-original="#000000"></path><circle cx="24" cy="15" r="1" fill="#000a24" opacity="1" data-original="#000000"></circle><circle cx="32" cy="15" r="1" fill="#000a24" opacity="1" data-original="#000000"></circle><circle cx="28" cy="15" r="1" fill="#000a24" opacity="1" data-original="#000000"></circle></g></svg>