<svg xmlns="http://www.w3.org/2000/svg" version="1.1" xmlns:xlink="http://www.w3.org/1999/xlink" width="512" height="512" x="0" y="0" viewBox="0 0 512 512" style="enable-background:new 0 0 512 512" xml:space="preserve" class=""><g><path d="M256 372.587h0c-55.47 0-100.437-44.967-100.437-100.436V111.436C155.563 55.967 200.53 11 256 11h0c55.47 0 100.436 44.967 100.436 100.436v160.715c0 55.47-44.966 100.436-100.436 100.436zM80.5 262.225h351M354.672 162.225h-33.036M353.834 112.225h-32.198M157.328 162.225h33.036M158.166 112.225h32.198M353.834 212.225h-32.198M158.166 212.225h32.198" style="stroke-width:22;stroke-linecap:round;stroke-linejoin:round;stroke-miterlimit:10;" fill="none" stroke="#000a24" stroke-width="22" stroke-linecap="round" stroke-linejoin="round" stroke-miterlimit="10" data-original="#000000" class="" opacity="1"></path><path d="M400.436 262.225v9.926c0 79.643-64.794 144.437-144.437 144.437s-144.437-64.794-144.437-144.437v-9.926M256 416.588V501M153.198 501h205.604" style="stroke-width:22;stroke-linecap:round;stroke-linejoin:round;stroke-miterlimit:10;" fill="none" stroke="#000a24" stroke-width="22" stroke-linecap="round" stroke-linejoin="round" stroke-miterlimit="10" data-original="#000000" class="" opacity="1"></path><path d="M501 187.225v-50M455.67 216.225v-108M410.341 187.225v-49.999M11 187.225v-50M56.33 216.225v-108M101.659 187.225v-49.999" style="stroke-width:22;stroke-linecap:round;stroke-linejoin:round;stroke-miterlimit:10;" fill="none" stroke="#000a24" stroke-width="22" stroke-linecap="round" stroke-linejoin="round" stroke-miterlimit="10" data-original="#33cccc" opacity="1"></path></g></svg>