<svg xmlns="http://www.w3.org/2000/svg" version="1.1" xmlns:xlink="http://www.w3.org/1999/xlink" width="512" height="512" x="0" y="0" viewBox="0 0 512 512" style="enable-background:new 0 0 512 512" xml:space="preserve" class=""><g><path d="M392 77c-66.168 0-120 53.832-120 120 0 31.641 12.208 61.497 34.374 84.069 22.117 22.521 51.659 35.27 83.189 35.9l.916.023c11.054.333 20.226-8.431 20.514-19.473.288-11.042-8.431-20.226-19.473-20.514l-1.107-.028C347.176 276.141 312 240.261 312 197c0-44.112 35.888-80 80-80s80 35.888 80 80c0 55.098-13.104 105.94-38.951 151.115-19.317 33.765-38.961 51.6-39.328 51.93-8.238 7.313-9.012 19.921-1.718 28.188a19.957 19.957 0 0 0 15.005 6.768 19.929 19.929 0 0 0 13.224-5.004c.967-.854 23.946-21.349 46.566-60.335C487.42 334.122 512 275.316 512 197c0-66.169-53.832-120-120-120zM120 77C53.832 77 0 130.831 0 197c0 31.641 12.208 61.497 34.374 84.071 22.117 22.521 51.659 35.269 83.189 35.9l.916.023c11.03.333 20.227-8.431 20.514-19.473.288-11.042-8.431-20.226-19.473-20.514l-1.107-.028C75.176 276.141 40 240.261 40 197c0-44.112 35.888-80 80-80s80 35.888 80 80c0 55.098-13.104 105.94-38.951 151.114-19.317 33.765-38.961 51.6-39.328 51.93-8.239 7.314-9.012 19.921-1.718 28.188A19.953 19.953 0 0 0 135.008 435c4.701 0 9.422-1.648 13.225-5.003.966-.854 23.946-21.349 46.566-60.335C215.42 334.122 240 275.317 240 197c0-66.169-53.832-120-120-120z" fill="#00A6FF" opacity="1" data-original="#000000"></path></g></svg>