<svg xmlns="http://www.w3.org/2000/svg" version="1.1" xmlns:xlink="http://www.w3.org/1999/xlink" width="512" height="512" x="0" y="0" viewBox="0 0 16.933 16.933" style="enable-background:new 0 0 512 512" xml:space="preserve"><g><path d="M3.702.53a.264.264 0 0 0-.244.165l-.386.965H2.12a.265.265 0 0 0-.16.476l.744.56-.376.943a.265.265 0 0 0 .38.324l.996-.598.996.598a.265.265 0 0 0 .381-.324l-.377-.944.744-.559a.265.265 0 0 0-.16-.476h-.953L3.95.695A.265.265 0 0 0 3.702.53zm4.762 0a.264.264 0 0 0-.242.165l-.387.965h-.953a.265.265 0 0 0-.158.476l.742.56-.377.943a.265.265 0 0 0 .38.324l.997-.598.996.598a.265.265 0 0 0 .383-.324l-.379-.944.744-.559a.265.265 0 0 0-.158-.476H9.1L8.712.695A.265.265 0 0 0 8.464.53zm4.762 0a.265.265 0 0 0-.242.165l-.387.965h-.953a.265.265 0 0 0-.158.476l.744.56-.379.943a.265.265 0 0 0 .382.324l.997-.598.996.598a.265.265 0 0 0 .38-.324l-.376-.944.742-.559a.265.265 0 0 0-.158-.476h-.953l-.385-.965a.265.265 0 0 0-.25-.166zm-4.76 6.612h-2.38v.53h2.38c.353 0 .353.53 0 .53h-2.38v.528h2.38c.36-.008.36.538 0 .53h-2.38l-.001.794h4.764V6.879a2.383 2.383 0 0 0-4.363-1.323h1.98c.353 0 .353.53 0 .53H6.223c-.06.169-.102.345-.123.53l2.38-.001c.38 0 .35.56-.014.527zM2.52 5.308a.266.266 0 0 0-.182.083c-.826.837-1.106 1.958-1.106 2.81 0 .853.282 1.98 1.15 2.846.25.259.633-.126.372-.375-.744-.744-.992-1.736-.992-2.47s.253-1.73.953-2.44a.265.265 0 0 0-.195-.454zm11.798 0a.265.265 0 0 0-.187.454c.7.71.951 1.704.951 2.44s-.248 1.726-.992 2.47c-.26.249.123.634.373.375.867-.867 1.148-1.993 1.148-2.846 0-.852-.276-1.973-1.103-2.81a.265.265 0 0 0-.19-.083zm-.832 1.387c.445.565.532 1.044.537 1.51.006.457-.09.934-.56 1.523-.215.276.194.602.414.33.538-.676.682-1.313.676-1.859a2.9 2.9 0 0 0-.65-1.83.265.265 0 1 0-.416.326zM3.14 6.265a.265.265 0 0 0-.198.104A2.902 2.902 0 0 0 2.29 8.2c-.006.546.138 1.183.676 1.86.22.28.639-.054.414-.33-.47-.59-.566-1.067-.56-1.524.005-.466.094-.945.538-1.51a.265.265 0 0 0-.218-.43zm2.148 2.461a.265.265 0 0 0-.261.27v1.322a3.436 3.436 0 0 0 2.645 3.344v1.154h-2.38a.798.798 0 0 0-.795.793v.53c0 .147.12.266.266.265h7.408c.146 0 .264-.12.264-.265v-.53a.797.797 0 0 0-.793-.793H9.26v-1.154a3.435 3.435 0 0 0 2.644-3.344V8.996c.008-.36-.537-.36-.529 0v1.322a2.897 2.897 0 0 1-2.91 2.91 2.898 2.898 0 0 1-2.91-2.91V8.996a.265.265 0 0 0-.268-.27zm.812 1.857a2.381 2.381 0 0 0 4.733 0z" fill="#000a24" opacity="1" data-original="#000000"></path></g></svg>