<svg xmlns="http://www.w3.org/2000/svg" version="1.1" xmlns:xlink="http://www.w3.org/1999/xlink" width="512" height="512" x="0" y="0" viewBox="0 0 32 32" style="enable-background:new 0 0 512 512" xml:space="preserve" class=""><g><path fill="#ffba00" d="M16 29a1.5 1.5 0 0 1-1.5-1.5v-2a1.5 1.5 0 0 1 3 0v2A1.5 1.5 0 0 1 16 29z" opacity="1" data-original="#ffba00"></path><path fill="#0066da" d="M4.5 18.5A1.5 1.5 0 0 1 3 17v-2a1.5 1.5 0 0 1 3 0v2a1.5 1.5 0 0 1-1.5 1.5z" opacity="1" data-original="#0066da" class=""></path><path fill="#4285f4" d="M27.5 18.5A1.5 1.5 0 0 1 26 17v-2a1.5 1.5 0 0 1 3 0v2a1.5 1.5 0 0 1-1.5 1.5z" opacity="1" data-original="#4285f4"></path><path fill="#ffba00" d="M16 8a1.5 1.5 0 0 1-1.5-1.5v-2a1.5 1.5 0 0 1 3 0v2A1.5 1.5 0 0 1 16 8z" opacity="1" data-original="#ffba00"></path><path fill="#ea4435" d="M10.25 24.5a1.5 1.5 0 0 1-1.5-1.5v-2a1.5 1.5 0 0 1 3 0v2a1.5 1.5 0 0 1-1.5 1.5zM10.25 17a1.5 1.5 0 0 1-1.5-1.5v-6a1.5 1.5 0 0 1 3 0v6a1.5 1.5 0 0 1-1.5 1.5z" opacity="1" data-original="#ea4435"></path><path fill="#ffba00" d="M16 22a1.5 1.5 0 0 1-1.5-1.5v-9a1.5 1.5 0 0 1 3 0v9A1.5 1.5 0 0 1 16 22z" opacity="1" data-original="#ffba00"></path><g fill="#00ac47"><path d="M21.75 12.75a1.5 1.5 0 0 1-1.5-1.5v-2a1.5 1.5 0 0 1 3 0v2a1.5 1.5 0 0 1-1.5 1.5zM21.75 24.25a1.5 1.5 0 0 1-1.5-1.5v-6a1.5 1.5 0 0 1 3 0v6a1.5 1.5 0 0 1-1.5 1.5z" fill="#00ac47" opacity="1" data-original="#00ac47"></path></g></g></svg>