<svg xmlns="http://www.w3.org/2000/svg" version="1.1" xmlns:xlink="http://www.w3.org/1999/xlink" width="512" height="512" x="0" y="0" viewBox="0 0 512 512" style="enable-background:new 0 0 512 512" xml:space="preserve" class=""><g><linearGradient id="a" x1="222.819" x2="224.224" y1="120.02" y2="444.567" gradientUnits="userSpaceOnUse"><stop offset="0" style="stop-color:#FF7800" stop-color="#ff7800"></stop><stop offset="1" style="stop-color:#FF3000" stop-color="#ff3000"></stop></linearGradient><path d="m214.805 362.56-2.943-54.72 2.943-135.36c0-4.769 3.955-8.64 8.828-8.64 4.873 0 8.828 3.871 8.828 8.64l2.942 135.36-2.942 54.72c0 4.769-3.955 8.64-8.828 8.64-4.874 0-8.828-3.871-8.828-8.64z" style="fill-rule:evenodd;clip-rule:evenodd;fill:url(#a);" fill=""></path><linearGradient id="b" x1="187.69" x2="188.861" y1="161.883" y2="432.339" gradientUnits="userSpaceOnUse"><stop offset="0" style="stop-color:#FF7800" stop-color="#ff7800"></stop><stop offset="1" style="stop-color:#FF3000" stop-color="#ff3000"></stop></linearGradient><path d="m179.494 362.56-2.942-54.72 2.942-100.8c0-4.769 3.955-8.64 8.828-8.64 4.873 0 8.828 3.871 8.828 8.64l2.943 100.8-2.943 54.72c0 4.769-3.955 8.64-8.828 8.64-4.873 0-8.828-3.871-8.828-8.64z" style="fill-rule:evenodd;clip-rule:evenodd;fill:url(#b);" fill=""></path><linearGradient id="c" x1="152.319" x2="153.568" y1="147.929" y2="436.415" gradientUnits="userSpaceOnUse"><stop offset="0" style="stop-color:#FF7800" stop-color="#ff7800"></stop><stop offset="1" style="stop-color:#FF3000" stop-color="#ff3000"></stop></linearGradient><path d="m144.184 362.56-2.943-54.72 2.943-112.32c0-4.769 3.955-8.64 8.828-8.64 4.873 0 8.828 3.871 8.828 8.64l2.942 112.32-2.942 54.72c0 4.769-3.955 8.64-8.828 8.64-4.873 0-8.828-3.871-8.828-8.64z" style="fill-rule:evenodd;clip-rule:evenodd;fill:url(#c);" fill=""></path><linearGradient id="d" x1="117.13" x2="118.222" y1="175.838" y2="428.263" gradientUnits="userSpaceOnUse"><stop offset="0" style="stop-color:#FF7800" stop-color="#ff7800"></stop><stop offset="1" style="stop-color:#FF3000" stop-color="#ff3000"></stop></linearGradient><path d="m108.874 362.56-2.942-54.72 2.942-89.28c0-4.769 3.955-8.64 8.828-8.64 4.873 0 8.828 3.871 8.828 8.64l2.943 89.28-2.943 54.72c0 4.769-3.955 8.64-8.828 8.64-4.874 0-8.828-3.871-8.828-8.64z" style="fill-rule:evenodd;clip-rule:evenodd;fill:url(#d);" fill=""></path><linearGradient id="e" x1="82.061" x2="82.841" y1="231.655" y2="411.959" gradientUnits="userSpaceOnUse"><stop offset="0" style="stop-color:#FF7800" stop-color="#ff7800"></stop><stop offset="1" style="stop-color:#FF3000" stop-color="#ff3000"></stop></linearGradient><path d="m73.563 362.56-2.943-54.72 2.943-43.2c0-4.769 3.955-8.64 8.828-8.64s8.828 3.871 8.828 8.64l2.942 43.2-2.942 54.72c0 4.769-3.955 8.64-8.828 8.64s-8.828-3.871-8.828-8.64z" style="fill-rule:evenodd;clip-rule:evenodd;fill:url(#e);" fill=""></path><linearGradient id="f" x1="46.69" x2="47.549" y1="217.701" y2="416.035" gradientUnits="userSpaceOnUse"><stop offset="0" style="stop-color:#FF7800" stop-color="#ff7800"></stop><stop offset="1" style="stop-color:#FF3000" stop-color="#ff3000"></stop></linearGradient><path d="m38.253 362.56-2.942-54.72 2.942-54.72c0-4.769 3.955-8.64 8.828-8.64 4.873 0 8.828 3.871 8.828 8.64l2.943 54.72-2.943 54.72c0 4.769-3.955 8.64-8.828 8.64-4.873 0-8.828-3.871-8.828-8.64z" style="fill-rule:evenodd;clip-rule:evenodd;fill:url(#f);" fill=""></path><linearGradient id="g" x1="11.522" x2="12.068" y1="250.479" y2="376.691" gradientUnits="userSpaceOnUse"><stop offset="0" style="stop-color:#FF7800" stop-color="#ff7800"></stop><stop offset="1" style="stop-color:#FF3000" stop-color="#ff3000"></stop></linearGradient><path d="M2.943 339.52 0 307.84l2.943-31.68c0-4.769 3.955-8.64 8.828-8.64s8.828 3.871 8.828 8.64l2.942 31.68-2.942 31.68c0 4.769-3.955 8.64-8.828 8.64s-8.828-3.871-8.828-8.64z" style="fill-rule:evenodd;clip-rule:evenodd;fill:url(#g);" fill=""></path><linearGradient id="h" x1="378.563" x2="380.128" y1="91.639" y2="453.204" gradientUnits="userSpaceOnUse"><stop offset="0" style="stop-color:#FF7800" stop-color="#ff7800"></stop><stop offset="1" style="stop-color:#FF3000" stop-color="#ff3000"></stop></linearGradient><path d="M416.314 237.457a71.776 71.776 0 0 1 25.065-4.497c39.002 0 70.621 30.947 70.621 69.12s-31.618 69.12-70.621 69.12H264.836c-9.755 0-17.663-7.762-17.663-17.297V169.6c0-28.8 52.965-28.8 52.965-28.8 58.554 0 107.113 41.851 116.176 96.657z" style="fill-rule:evenodd;clip-rule:evenodd;fill:url(#h);" fill=""></path></g></svg>